<svg width="244" height="53" fill="none" xmlns="http://www.w3.org/2000/svg"><path d="M4.077 11.655a.76.76 0 0 0 .756-.759V7.574a.76.76 0 0 0-.756-.758H.757A.76.76 0 0 0 0 7.574v3.322c0 .42.344.758.756.758h3.32Z" fill="#C2B59B"/><path d="M.041 13.708a12.706 12.706 0 0 0 11.674 11.703V14.466a.76.76 0 0 0-.756-.758H.04Z" fill="#FFC93C"/><path d="M10.96 4.756a.76.76 0 0 0 .755-.759V0C9.31.427 7.399 2.35 6.973 4.756h3.987Z" fill="#C2B59B"/><path d="M46.029 13.708h-3.988a.76.76 0 0 0-.756.758v3.998c2.4-.427 4.318-2.35 4.744-4.756Z" fill="#FFC93C"/><path d="M32.265 4.756A5.898 5.898 0 0 0 27.521 0v3.997c0 .42.344.759.757.759h3.987Z" fill="#094151"/><path d="M19.621 13.708c-3.231 0-5.857 2.633-5.857 5.872 0 3.24 2.626 5.873 5.857 5.873 3.232 0 5.858-2.633 5.858-5.873 0-3.239-2.633-5.872-5.858-5.872Z" fill="#FF9A3C"/><path d="M29.942 41.297a2.427 2.427 0 0 0 0 4.852 2.427 2.427 0 0 0 0-4.852ZM38.48 11.655a.76.76 0 0 0 .756-.759V7.574a.76.76 0 0 0-.757-.758H28.284a.76.76 0 0 0-.757.758v3.322c0 .42.344.758.757.758h10.195Z" fill="#094151"/><path d="M37.793 25.452 27.522 15.156v9.531c0 .42.343.758.756.758h9.515v.007Z" fill="#FF6F3C"/><path d="M52.237 20.6H42.041a.76.76 0 0 0-.756.758v3.322c0 .42.344.759.756.759h10.196a.76.76 0 0 0 .756-.759v-3.315a.756.756 0 0 0-.756-.765Z" fill="#FFC93C"/><path d="M42.041 27.5a.76.76 0 0 0-.756.758v7.664l4.2-8.423h-3.444Z" fill="#094151"/><path d="M48.167 42.076v7.664l4.2-8.429h-3.444a.765.765 0 0 0-.756.765Z" fill="#FF9A3C"/><path d="M13.778 6.244c.22 2.854 2.53 5.176 5.376 5.397a5.834 5.834 0 0 0 6.229-4.832H20.06a1.475 1.475 0 0 1-1.47-1.475V0c-2.957.517-5.047 3.184-4.813 6.244ZM39.195 41.297H35.16a.76.76 0 0 0-.757.758v4.666c0 .814-.66 1.475-1.47 1.475h-4.655a.76.76 0 0 0-.756.758V53a12.706 12.706 0 0 0 11.673-11.703Z" fill="#FF6F3C"/><path d="M31.55 32.351a.76.76 0 0 0 .756-.758v-3.322a.76.76 0 0 0-.756-.758h-3.314a.76.76 0 0 0-.756.758v3.322c0 .42.343.758.756.758h3.313Z" fill="#FF9A3C"/><path d="M38.48 18.553a.76.76 0 0 0 .757-.758v-3.322a.76.76 0 0 0-.757-.758h-3.314a.76.76 0 0 0-.756.758v3.322c0 .42.344.758.756.758h3.314Z" fill="#FF6F3C"/><path d="M35.31 27.5a.908.908 0 0 0-.908.91v9.924a.908.908 0 1 0 1.815 0v-9.925a.908.908 0 0 0-.907-.91ZM38.328 27.5a.908.908 0 0 0-.907.91v9.924a.908.908 0 1 0 1.815 0v-9.925a.908.908 0 0 0-.908-.91Z" fill="#C2B59B"/><path d="M7.83 6.81a.908.908 0 0 0-.907.91v3.025a.908.908 0 1 0 1.815 0V7.719a.903.903 0 0 0-.908-.91ZM10.849 6.81a.908.908 0 0 0-.908.91v3.025a.908.908 0 1 0 1.815 0V7.719a.903.903 0 0 0-.907-.91Z" fill="#094151"/><path d="M22.633.669a.903.903 0 0 0-1.286 0 .908.908 0 0 0 0 1.288l2.131 2.137a.903.903 0 0 0 1.286 0 .908.908 0 0 0 0-1.289L22.633.67Z" fill="#FF9A3C"/><path d="m29.474 38.533 2.13-2.136a.908.908 0 0 0 0-1.289.903.903 0 0 0-1.285 0l-2.131 2.137a.908.908 0 0 0 0 1.288.903.903 0 0 0 1.286 0Z" fill="#FFC93C"/><path d="M65.48 36h2.977l1.175-3.744h6.816L77.637 36h2.975l-5.447-17.28h-4.237L65.481 36Zm5.004-6.444 2.532-8.04 2.569 8.04h-5.1ZM83.3 36h2.893V25.308h3.132V23.04h-3.132v-.828c0-.448.132-.808.396-1.08.272-.28.684-.42 1.236-.42h1.5V18.36h-1.62c-.312 0-.676.012-1.092.036-.416.016-.84.104-1.272.264-.424.152-.82.432-1.188.84a2.824 2.824 0 0 0-.756 1.656 16.632 16.632 0 0 0-.096 1.68v.204h-2.088v2.268H83.3V36ZM91.243 36h2.904v-6.588c0-.752.136-1.42.408-2.004a2.977 2.977 0 0 1 1.308-1.356c.4-.232.848-.368 1.344-.408.496-.048.94-.016 1.332.096v-2.7a5.457 5.457 0 0 0-1.8.036 4.077 4.077 0 0 0-1.644.648 3.346 3.346 0 0 0-.732.612 3.964 3.964 0 0 0-.564.78V23.04h-2.556V36ZM101.069 21.072h2.892V18.42h-2.892v2.652Zm0 14.928h2.892V23.04h-2.892V36ZM113.183 36.36c1.448 0 2.672-.352 3.672-1.056 1-.712 1.7-1.728 2.1-3.048l-2.952-.66c-.224.664-.56 1.172-1.008 1.524-.44.352-1.044.528-1.812.528-1.088 0-1.908-.38-2.46-1.14-.544-.76-.82-1.756-.828-2.988.008-1.192.272-2.176.792-2.952.528-.784 1.36-1.176 2.496-1.176.664 0 1.256.196 1.776.588.52.384.892.924 1.116 1.62l2.88-.78c-.304-1.28-.968-2.288-1.992-3.024-1.024-.744-2.272-1.116-3.744-1.116-1.312 0-2.444.296-3.396.888a5.886 5.886 0 0 0-2.208 2.424c-.512 1.024-.772 2.2-.78 3.528.008 1.304.26 2.472.756 3.504a5.912 5.912 0 0 0 2.172 2.448c.944.592 2.084.888 3.42.888ZM124.773 36.36c1.032 0 1.908-.168 2.628-.504.728-.344 1.368-.876 1.92-1.596V36h2.532v-7.956c0-.56-.024-1.076-.072-1.548a3.942 3.942 0 0 0-.42-1.404 3.77 3.77 0 0 0-1.956-1.848c-.872-.376-1.884-.564-3.036-.564-1.52 0-2.732.332-3.636.996a4.883 4.883 0 0 0-1.836 2.64l2.64.828c.216-.664.596-1.132 1.14-1.404a3.739 3.739 0 0 1 1.692-.408c.88 0 1.528.18 1.944.54.416.352.652.9.708 1.644-1.136.168-2.192.332-3.168.492-.968.152-1.792.34-2.472.564-1.024.352-1.772.852-2.244 1.5-.472.64-.708 1.432-.708 2.376 0 .712.164 1.364.492 1.956.336.592.828 1.068 1.476 1.428.648.352 1.44.528 2.376.528Zm.576-2.304c-.68 0-1.2-.156-1.56-.468a1.505 1.505 0 0 1-.528-1.176c0-.424.136-.768.408-1.032.28-.264.668-.488 1.164-.672a11.577 11.577 0 0 1 1.644-.396c.64-.12 1.476-.26 2.508-.42a17.59 17.59 0 0 1-.06 1.02c-.032.368-.108.7-.228.996-.096.296-.284.612-.564.948-.272.336-.64.62-1.104.852-.464.232-1.024.348-1.68.348ZM139.782 36h5.508c.136 0 .42-.004.852-.012.44-.008.856-.036 1.248-.084 1.376-.176 2.536-.66 3.48-1.452.944-.8 1.66-1.816 2.148-3.048.488-1.232.732-2.58.732-4.044 0-1.464-.244-2.812-.732-4.044-.488-1.232-1.204-2.248-2.148-3.048-.944-.8-2.104-1.284-3.48-1.452-.4-.048-.816-.076-1.248-.084a56.044 56.044 0 0 0-.852-.012h-5.508V36Zm2.94-2.724V21.444h2.568c.24 0 .544.008.912.024.368.008.7.044.996.108.8.152 1.456.508 1.968 1.068s.892 1.252 1.14 2.076c.256.816.384 1.696.384 2.64 0 .904-.12 1.768-.36 2.592-.24.824-.62 1.524-1.14 2.1-.512.568-1.176.932-1.992 1.092a7.03 7.03 0 0 1-.996.108 21.73 21.73 0 0 1-.912.024h-2.568ZM160.211 36.36c1.032 0 1.908-.168 2.628-.504.728-.344 1.368-.876 1.92-1.596V36h2.532v-7.956c0-.56-.024-1.076-.072-1.548a3.942 3.942 0 0 0-.42-1.404 3.77 3.77 0 0 0-1.956-1.848c-.872-.376-1.884-.564-3.036-.564-1.52 0-2.732.332-3.636.996a4.883 4.883 0 0 0-1.836 2.64l2.64.828c.216-.664.596-1.132 1.14-1.404a3.739 3.739 0 0 1 1.692-.408c.88 0 1.528.18 1.944.54.416.352.652.9.708 1.644-1.136.168-2.192.332-3.168.492-.968.152-1.792.34-2.472.564-1.024.352-1.772.852-2.244 1.5-.472.64-.708 1.432-.708 2.376 0 .712.164 1.364.492 1.956.336.592.828 1.068 1.476 1.428.648.352 1.44.528 2.376.528Zm.576-2.304c-.68 0-1.2-.156-1.56-.468a1.505 1.505 0 0 1-.528-1.176c0-.424.136-.768.408-1.032.28-.264.668-.488 1.164-.672a11.577 11.577 0 0 1 1.644-.396c.64-.12 1.476-.26 2.508-.42a17.59 17.59 0 0 1-.06 1.02c-.032.368-.108.7-.228.996-.096.296-.284.612-.564.948-.272.336-.64.62-1.104.852-.464.232-1.024.348-1.68.348ZM178.011 36v-2.424c-.808.12-1.528.152-2.16.096-.632-.056-1.092-.324-1.38-.804-.152-.248-.236-.568-.252-.96-.008-.4-.012-.856-.012-1.368v-5.232h3.804V23.04h-3.804v-3.6h-2.88v3.6h-2.352v2.268h2.352v5.4c0 .744.008 1.408.024 1.992.016.576.172 1.144.468 1.704a3.043 3.043 0 0 0 1.476 1.356c.648.28 1.38.428 2.196.444.824.024 1.664-.044 2.52-.204ZM184.422 36.36c1.032 0 1.908-.168 2.628-.504.728-.344 1.368-.876 1.92-1.596V36h2.532v-7.956c0-.56-.024-1.076-.072-1.548a3.942 3.942 0 0 0-.42-1.404 3.77 3.77 0 0 0-1.956-1.848c-.872-.376-1.884-.564-3.036-.564-1.52 0-2.732.332-3.636.996a4.883 4.883 0 0 0-1.836 2.64l2.64.828c.216-.664.596-1.132 1.14-1.404a3.739 3.739 0 0 1 1.692-.408c.88 0 1.528.18 1.944.54.416.352.652.9.708 1.644-1.136.168-2.192.332-3.168.492-.968.152-1.792.34-2.472.564-1.024.352-1.772.852-2.244 1.5-.472.64-.708 1.432-.708 2.376 0 .712.164 1.364.492 1.956.336.592.828 1.068 1.476 1.428.648.352 1.44.528 2.376.528Zm.576-2.304c-.68 0-1.2-.156-1.56-.468a1.505 1.505 0 0 1-.528-1.176c0-.424.136-.768.408-1.032.28-.264.668-.488 1.164-.672a11.577 11.577 0 0 1 1.644-.396c.64-.12 1.476-.26 2.508-.42a17.59 17.59 0 0 1-.06 1.02c-.032.368-.108.7-.228.996-.096.296-.284.612-.564.948-.272.336-.64.62-1.104.852-.464.232-1.024.348-1.68.348ZM199.43 36h2.892v-7.296h8.184V36h2.88V18.72h-2.88v7.272h-8.184V18.72h-2.892V36ZM221.611 36.372c.936 0 1.756-.16 2.46-.48a5.044 5.044 0 0 0 1.776-1.332V36h2.556V23.04h-2.904v6.66c0 1.048-.152 1.86-.456 2.436-.296.568-.676.964-1.14 1.188a3.375 3.375 0 0 1-1.44.324c-.688 0-1.236-.148-1.644-.444a2.809 2.809 0 0 1-.912-1.14 5.637 5.637 0 0 1-.384-1.44 12.085 12.085 0 0 1-.084-1.344v-6.24h-2.928v7.236c0 .304.024.708.072 1.212.056.504.172 1.036.348 1.596s.448 1.092.816 1.596c.368.496.864.904 1.488 1.224.632.312 1.424.468 2.376.468ZM231.75 36h2.556v-.96c.464.416 1.004.74 1.62.972.616.232 1.308.348 2.076.348 1.2 0 2.24-.3 3.12-.9.888-.6 1.576-1.416 2.064-2.448s.732-2.196.732-3.492c0-1.312-.248-2.484-.744-3.516-.488-1.032-1.184-1.844-2.088-2.436-.904-.592-1.968-.888-3.192-.888-.648 0-1.24.088-1.776.264a4.862 4.862 0 0 0-1.452.732V18.72h-2.916V36Zm5.808-2.232c-1.16 0-1.992-.392-2.496-1.176-.504-.792-.756-1.816-.756-3.072 0-1.264.248-2.288.744-3.072.504-.784 1.308-1.176 2.412-1.176.776 0 1.412.192 1.908.576.504.376.876.888 1.116 1.536.248.64.372 1.352.372 2.136 0 .792-.12 1.508-.36 2.148-.232.64-.592 1.152-1.08 1.536-.488.376-1.108.564-1.86.564Z" fill="#094151"/></svg>